<svg xmlns="http://www.w3.org/2000/svg" xmlns:xlink="http://www.w3.org/1999/xlink"><symbol id="icon-cart" viewBox="0 0 25 27">
<path d="M4.83333 1L1 6V23.5C1 24.163 1.26925 24.7989 1.7485 25.2678C2.22776 25.7366 2.87778 26 3.55556 26H21.4444C22.1222 26 22.7722 25.7366 23.2515 25.2678C23.7308 24.7989 24 24.163 24 23.5V6L20.1667 1H4.83333Z" stroke="black" stroke-width="2" stroke-linecap="round" stroke-linejoin="round"/>
<path d="M1 6H24" stroke="black" stroke-width="2" stroke-linecap="round" stroke-linejoin="round"/>
<path d="M17.6111 11C17.6111 12.3261 17.0726 13.5979 16.1141 14.5355C15.1556 15.4732 13.8556 16 12.5 16C11.1445 16 9.84444 15.4732 8.88593 14.5355C7.92741 13.5979 7.38892 12.3261 7.38892 11" stroke="black" stroke-width="2" stroke-linecap="round" stroke-linejoin="round"/>
</symbol><symbol id="icon-heart" viewBox="0 0 30 27">
<path d="M26.8409 3.21018C26.1568 2.50949 25.3445 1.95365 24.4504 1.57442C23.5563 1.19519 22.598 1 21.6302 1C20.6625 1 19.7042 1.19519 18.8101 1.57442C17.916 1.95365 17.1037 2.50949 16.4195 3.21018L14.9996 4.66368L13.5798 3.21018C12.1978 1.7955 10.3234 1.00073 8.36905 1.00073C6.41466 1.00073 4.54031 1.7955 3.15835 3.21018C1.77638 4.62487 1 6.54359 1 8.54426C1 10.5449 1.77638 12.4637 3.15835 13.8783L4.57823 15.3318L14.9996 26L25.4211 15.3318L26.8409 13.8783C27.5254 13.178 28.0684 12.3464 28.4389 11.4312C28.8093 10.5159 29 9.53496 29 8.54426C29 7.55356 28.8093 6.57258 28.4389 5.65734C28.0684 4.7421 27.5254 3.91054 26.8409 3.21018V3.21018Z" stroke="black" stroke-width="2" stroke-linecap="round" stroke-linejoin="round"/>
</symbol><symbol id="icon-logo" viewBox="0 0 160 50">
<path d="M0 49.5098V0.490194H7.24151V44.5378H25.8095V49.5098H0Z" fill="black"/>
<path d="M40.006 12.3249C40.006 8.54342 41.2129 5.55555 43.6267 3.36134C46.1025 1.12045 49.847 0 54.8603 0C59.8737 0 63.6182 1.12045 66.094 3.36134C68.5697 5.55555 69.8076 8.54342 69.8076 12.3249V37.6751C69.8076 41.4099 68.5697 44.3978 66.094 46.6387C63.6182 48.8796 59.8737 50 54.8603 50C49.847 50 46.1025 48.8796 43.6267 46.6387C41.2129 44.3978 40.006 41.4099 40.006 37.6751V12.3249ZM47.1546 37.9552C47.1546 40.1961 47.7736 41.9468 49.0114 43.2073C50.3112 44.4211 52.2608 45.028 54.8603 45.028C57.5218 45.028 59.4714 44.4211 60.7093 43.2073C61.9471 41.9468 62.5661 40.1961 62.5661 37.9552V12.0448C62.5661 9.80392 61.9471 8.07656 60.7093 6.86274C59.4714 5.60224 57.5218 4.97199 54.8603 4.97199C52.2608 4.97199 50.3112 5.60224 49.0114 6.86274C47.7736 8.07656 47.1546 9.80392 47.1546 12.0448V37.9552Z" fill="black"/>
<path d="M99.95 0C104.963 0 108.646 1.12045 110.998 3.36134C113.412 5.60224 114.619 8.5901 114.619 12.3249V16.5266H107.749V12.0448C107.749 9.80392 107.13 8.07656 105.892 6.86274C104.716 5.60224 102.797 4.97199 100.136 4.97199C97.5362 4.97199 95.6175 5.60224 94.3796 6.86274C93.1418 8.07656 92.5229 9.80392 92.5229 12.0448V37.9552C92.5229 40.1961 93.1418 41.9468 94.3796 43.2073C95.6175 44.4211 97.5362 45.028 100.136 45.028C102.797 45.028 104.716 44.4211 105.892 43.2073C107.13 41.9468 107.749 40.1961 107.749 37.9552V28.1513H101.064V23.2493H114.619V37.6751C114.619 41.4099 113.412 44.3978 110.998 46.6387C108.646 48.8796 104.963 50 99.95 50C94.9986 50 91.3159 48.8796 88.9021 46.6387C86.5502 44.3978 85.3742 41.4099 85.3742 37.6751V12.3249C85.3742 10.4575 85.6527 8.77684 86.2097 7.28291C86.8287 5.7423 87.7261 4.43511 88.9021 3.36134C90.14 2.28758 91.6563 1.47059 93.4513 0.910365C95.3081 0.303455 97.4743 0 99.95 0Z" fill="black"/>
<path d="M130.198 12.3249C130.198 8.54342 131.405 5.55555 133.819 3.36134C136.295 1.12045 140.039 0 145.053 0C150.066 0 153.811 1.12045 156.286 3.36134C158.762 5.55555 160 8.54342 160 12.3249V37.6751C160 41.4099 158.762 44.3978 156.286 46.6387C153.811 48.8796 150.066 50 145.053 50C140.039 50 136.295 48.8796 133.819 46.6387C131.405 44.3978 130.198 41.4099 130.198 37.6751V12.3249ZM137.347 37.9552C137.347 40.1961 137.966 41.9468 139.204 43.2073C140.504 44.4211 142.453 45.028 145.053 45.028C147.714 45.028 149.664 44.4211 150.902 43.2073C152.14 41.9468 152.758 40.1961 152.758 37.9552V12.0448C152.758 9.80392 152.14 8.07656 150.902 6.86274C149.664 5.60224 147.714 4.97199 145.053 4.97199C142.453 4.97199 140.504 5.60224 139.204 6.86274C137.966 8.07656 137.347 9.80392 137.347 12.0448V37.9552Z" fill="black"/>
</symbol><symbol id="icon-minus" viewBox="0 0 16 2">
<line y1="1" x2="16" y2="1" stroke="black" stroke-width="2"/>
</symbol><symbol id="icon-plus" viewBox="0 0 16 16">
<line y1="8" x2="16" y2="8" stroke="black" stroke-width="2"/>
<line x1="8" y1="16" x2="8" stroke="black" stroke-width="2"/>
</symbol><symbol id="icon-search" viewBox="0 0 27 27">
<path d="M12.1111 23.2222C18.2476 23.2222 23.2222 18.2476 23.2222 12.1111C23.2222 5.97461 18.2476 1 12.1111 1C5.97461 1 1 5.97461 1 12.1111C1 18.2476 5.97461 23.2222 12.1111 23.2222Z" stroke="black" stroke-width="2" stroke-linecap="round" stroke-linejoin="round"/>
<path d="M25.9997 26L19.958 19.9584" stroke="black" stroke-width="2" stroke-linecap="round" stroke-linejoin="round"/>
</symbol><symbol id="icon-user" viewBox="0 0 24 27">
<path d="M23 26V23.2222C23 21.7488 22.4205 20.3357 21.3891 19.2939C20.3576 18.252 18.9587 17.6667 17.5 17.6667H6.5C5.04131 17.6667 3.64236 18.252 2.61091 19.2939C1.57946 20.3357 1 21.7488 1 23.2222V26" stroke="black" stroke-width="2" stroke-linecap="round" stroke-linejoin="round"/>
<path d="M12 12.1111C15.0376 12.1111 17.5 9.6238 17.5 6.55556C17.5 3.48731 15.0376 1 12 1C8.96243 1 6.5 3.48731 6.5 6.55556C6.5 9.6238 8.96243 12.1111 12 12.1111Z" stroke="black" stroke-width="2" stroke-linecap="round" stroke-linejoin="round"/>
</symbol></svg>